<svg width="17" height="15" viewBox="0 0 17 15" fill="none" xmlns="http://www.w3.org/2000/svg">
<path d="M8.99996 3.66659H2.33329C1.89127 3.66659 1.46734 3.84218 1.15478 4.15474C0.842221 4.4673 0.666626 4.89122 0.666626 5.33325V8.66659C0.666626 9.10861 0.842221 9.53254 1.15478 9.8451C1.46734 10.1577 1.89127 10.3333 2.33329 10.3333H3.16663V13.6666C3.16663 13.8876 3.25442 14.0996 3.4107 14.2558C3.56698 14.4121 3.77895 14.4999 3.99996 14.4999H5.66663C5.88764 14.4999 6.0996 14.4121 6.25588 14.2558C6.41216 14.0996 6.49996 13.8876 6.49996 13.6666V10.3333H8.99996L13.1666 13.6666V0.333252L8.99996 3.66659ZM16.9166 6.99992C16.9166 8.42492 16.1166 9.71659 14.8333 10.3333V3.66659C16.1083 4.29159 16.9166 5.58325 16.9166 6.99992Z" fill="#653780"/>
</svg>
