<svg width="17" height="17" viewBox="0 0 17 17" fill="none" xmlns="http://www.w3.org/2000/svg">
<path d="M2.63386 0.348389C1.37314 0.348389 0.348145 1.37339 0.348145 2.6341L0.348145 14.0627C0.348145 15.3234 1.37314 16.3484 2.63386 16.3484H14.0624C15.3231 16.3484 16.3481 15.3234 16.3481 14.0627V2.6341C16.3481 1.37339 15.3231 0.348389 14.0624 0.348389L2.63386 0.348389ZM4.91957 7.20553C5.55172 7.20553 6.06243 7.71625 6.06243 8.34839L6.06243 11.777C6.06243 12.4091 5.55172 12.9198 4.91957 12.9198C4.28743 12.9198 3.77672 12.4091 3.77672 11.777V8.34839C3.77672 7.71625 4.28743 7.20553 4.91957 7.20553ZM7.20529 4.91982C7.20529 4.28767 7.716 3.77696 8.34814 3.77696C8.98029 3.77696 9.491 4.28767 9.491 4.91982V11.777C9.491 12.4091 8.98029 12.9198 8.34814 12.9198C7.716 12.9198 7.20529 12.4091 7.20529 11.777L7.20529 4.91982ZM11.7767 9.49125C12.4089 9.49125 12.9196 10.002 12.9196 10.6341V11.777C12.9196 12.4091 12.4089 12.9198 11.7767 12.9198C11.1446 12.9198 10.6339 12.4091 10.6339 11.777V10.6341C10.6339 10.002 11.1446 9.49125 11.7767 9.49125Z" fill="#653780"/>
</svg>
