<svg width="20" height="15" viewBox="0 0 20 15" fill="none" xmlns="http://www.w3.org/2000/svg">
<path d="M13.6666 12.5832V14.4166H0.833252V12.5832C0.833252 12.5832 0.833252 8.91655 7.24992 8.91655C13.6666 8.91655 13.6666 12.5832 13.6666 12.5832ZM10.4583 3.87489C10.4583 3.24034 10.2701 2.62004 9.91755 2.09243C9.56501 1.56482 9.06394 1.1536 8.47769 0.910772C7.89145 0.667941 7.24636 0.604405 6.624 0.728199C6.00165 0.851994 5.42998 1.15756 4.98128 1.60625C4.53259 2.05494 4.22703 2.62662 4.10323 3.24897C3.97944 3.87133 4.04297 4.51641 4.28581 5.10266C4.52864 5.68891 4.93986 6.18998 5.46746 6.54252C5.99507 6.89505 6.61537 7.08322 7.24992 7.08322C8.10082 7.08322 8.91687 6.7452 9.51855 6.14352C10.1202 5.54184 10.4583 4.72579 10.4583 3.87489ZM13.6116 8.91655C14.1751 9.35265 14.6362 9.90695 14.9625 10.5404C15.2887 11.1739 15.4722 11.8712 15.4999 12.5832V14.4166H19.1666V12.5832C19.1666 12.5832 19.1666 9.25572 13.6116 8.91655ZM12.7499 0.666552C12.119 0.663039 11.5019 0.851678 10.9808 1.20739C11.5376 1.98539 11.837 2.91815 11.837 3.87489C11.837 4.83162 11.5376 5.76438 10.9808 6.54239C11.5019 6.89809 12.119 7.08673 12.7499 7.08322C13.6008 7.08322 14.4169 6.7452 15.0186 6.14352C15.6202 5.54184 15.9583 4.72579 15.9583 3.87489C15.9583 3.02398 15.6202 2.20793 15.0186 1.60625C14.4169 1.00457 13.6008 0.666552 12.7499 0.666552Z" fill="#653780"/>
</svg>
