<svg width="28" height="30" viewBox="0 0 28 30" fill="none" xmlns="http://www.w3.org/2000/svg">
<path fill-rule="evenodd" clip-rule="evenodd" d="M17.9766 15.5558C17.7467 14.9059 17.321 14.3431 16.7581 13.9451C16.1952 13.5471 15.5227 13.3333 14.8333 13.3333V12.5H13.1666V13.3333C12.2825 13.3333 11.4347 13.6845 10.8096 14.3096C10.1844 14.9348 9.83325 15.7826 9.83325 16.6667C9.83325 17.5507 10.1844 18.3986 10.8096 19.0237C11.4347 19.6488 12.2825 20 13.1666 20V23.3333C12.4416 23.3333 11.8241 22.8708 11.5941 22.2225C11.56 22.1164 11.5049 22.0183 11.4322 21.9339C11.3595 21.8494 11.2706 21.7804 11.1707 21.731C11.0709 21.6815 10.9621 21.6526 10.8509 21.6459C10.7397 21.6392 10.6282 21.6549 10.5232 21.692C10.4181 21.7291 10.3216 21.7869 10.2392 21.862C10.1569 21.9371 10.0905 22.0279 10.0439 22.1291C9.99726 22.2303 9.97142 22.3399 9.96788 22.4512C9.96434 22.5626 9.98317 22.6735 10.0233 22.7775C10.2531 23.4275 10.6788 23.9902 11.2418 24.3882C11.8047 24.7863 12.4772 25 13.1666 25V25.8333H14.8333V25C15.7173 25 16.5652 24.6488 17.1903 24.0237C17.8154 23.3986 18.1666 22.5507 18.1666 21.6667C18.1666 20.7826 17.8154 19.9348 17.1903 19.3096C16.5652 18.6845 15.7173 18.3333 14.8333 18.3333V15C15.1779 14.9999 15.5142 15.1067 15.7956 15.3056C16.0771 15.5046 16.29 15.7859 16.4049 16.1108C16.4785 16.3192 16.6319 16.4899 16.8313 16.5852C16.93 16.6324 17.0371 16.6597 17.1464 16.6655C17.2557 16.6714 17.3651 16.6556 17.4683 16.6192C17.5714 16.5827 17.6665 16.5263 17.7479 16.4532C17.8292 16.38 17.8954 16.2915 17.9426 16.1928C17.9898 16.094 18.0171 15.987 18.023 15.8777C18.0288 15.7684 18.013 15.659 17.9766 15.5558ZM13.1666 15C12.7246 15 12.3006 15.1756 11.9881 15.4882C11.6755 15.8007 11.4999 16.2246 11.4999 16.6667C11.4999 17.1087 11.6755 17.5326 11.9881 17.8452C12.3006 18.1577 12.7246 18.3333 13.1666 18.3333V15ZM14.8333 23.3333C15.2753 23.3333 15.6992 23.1577 16.0118 22.8452C16.3243 22.5326 16.4999 22.1087 16.4999 21.6667C16.4999 21.2246 16.3243 20.8007 16.0118 20.4882C15.6992 20.1756 15.2753 20 14.8333 20V23.3333Z" fill="black"/>
<path fill-rule="evenodd" clip-rule="evenodd" d="M4.96074 2.18417C7.00574 1.18333 10.3607 0 14.0324 0C17.6274 0 20.8941 1.13417 22.9282 2.12167L23.0432 2.1775C23.6566 2.48083 24.1516 2.7675 24.4999 3L21.4216 7.5C28.5182 14.755 33.9999 29.9975 14.0324 29.9975C-5.9351 29.9975 -0.600931 15.0317 6.5574 7.5L3.49907 3C3.7349 2.84583 4.03407 2.66667 4.39074 2.47667C4.5674 2.38167 4.7574 2.28333 4.96074 2.18417ZM19.4432 7.44083L21.9074 3.83833C19.6157 4.00333 16.8891 4.54167 14.2641 5.30167C12.3891 5.84333 10.3057 5.76083 8.37657 5.405C7.89043 5.31487 7.40763 5.20758 6.92907 5.08333L8.52907 7.43917C11.9582 8.66 16.0132 8.66 19.4432 7.44083ZM7.56657 8.85833C11.5791 10.4083 16.4016 10.4083 20.4141 8.85667C22.089 10.6222 23.49 12.6287 24.5707 14.8092C25.6974 17.1075 26.3107 19.405 26.2107 21.385C26.1141 23.2958 25.3624 24.9283 23.6457 26.1417C21.8566 27.4058 18.8474 28.3308 14.0316 28.3308C9.21074 28.3308 6.1874 27.4217 4.38157 26.1717C2.6524 24.9742 1.89324 23.3633 1.78574 21.4783C1.67324 19.52 2.27324 17.2342 3.39574 14.92C4.46657 12.7133 5.96074 10.5892 7.56657 8.85833ZM6.60824 3.26333C7.2749 3.46167 7.97157 3.63417 8.67824 3.765C10.4699 4.095 12.2666 4.14333 13.7999 3.69917C15.5867 3.17862 17.4041 2.76923 19.2416 2.47333C17.7082 2.01167 15.9149 1.66667 14.0316 1.66667C11.1607 1.66667 8.48324 2.4675 6.60824 3.26333Z" fill="black"/>
</svg>
