<svg width="36" height="26" viewBox="0 0 36 26" fill="none" xmlns="http://www.w3.org/2000/svg">
<path d="M26.5675 0.509821C23.205 0.602321 20.5987 1.51482 18.0612 2.39732C15.3475 3.33982 12.7863 4.22857 9.2375 4.26482C6.86625 4.30232 4.49125 3.89232 2.1575 3.08482L0.5 2.51232V23.8648L1.3325 24.1611C3.50625 24.9298 5.72875 25.3736 7.94125 25.4786C8.2925 25.4948 8.63625 25.5036 8.97375 25.5036C12.74 25.5036 15.6238 24.5036 18.42 23.5386C21.3675 22.5186 24.1475 21.5548 27.9412 21.7336C29.9521 21.8369 31.937 22.2344 33.8325 22.9136L35.5 23.5036V2.14232L34.6775 1.84232C32.5505 1.0677 30.3177 0.622562 28.0562 0.522322C27.5603 0.500305 27.0637 0.496135 26.5675 0.509821ZM26.635 2.99232C27.06 2.97982 27.495 2.97982 27.9463 2.99732C28.4138 3.01732 28.8812 3.05982 29.3475 3.11482C29.5377 3.89913 30.0245 4.57919 30.7056 5.01206C31.3867 5.44493 32.2092 5.59692 33 5.43607V16.8136C32.5905 16.7302 32.1685 16.73 31.7589 16.813C31.3493 16.8959 30.9606 17.0604 30.6159 17.2965C30.2711 17.5326 29.9773 17.8356 29.7519 18.1874C29.5265 18.5393 29.3741 18.9329 29.3037 19.3448C28.8897 19.3022 28.4745 19.2714 28.0588 19.2523C23.79 19.0648 20.6425 20.1386 17.6 21.1936C14.6488 22.2161 11.8525 23.1823 8.06125 23.0023C7.58907 22.9776 7.11793 22.9359 6.64875 22.8773C6.45695 22.0952 5.97003 21.4176 5.28992 20.9863C4.60982 20.555 3.78926 20.4035 3 20.5636V9.18607C3.41193 9.26991 3.83657 9.26952 4.24835 9.18496C4.66014 9.10039 5.05055 8.93338 5.3961 8.69398C5.74166 8.45458 6.0352 8.14774 6.25907 7.79193C6.48293 7.43612 6.63249 7.0387 6.69875 6.62357C7.555 6.71232 8.41125 6.76357 9.265 6.74982C13.2213 6.70982 16.0975 5.70857 18.8813 4.74107C21.3325 3.88732 23.6688 3.08482 26.635 2.99232ZM18 6.74982C15.2425 6.74982 13 9.55357 13 12.9998C13 16.4461 15.2425 19.2498 18 19.2498C20.7575 19.2498 23 16.4461 23 12.9998C23 9.55357 20.7575 6.74982 18 6.74982ZM18 9.24982C19.355 9.24982 20.5 10.9673 20.5 12.9998C20.5 15.0323 19.355 16.7498 18 16.7498C16.645 16.7498 15.5 15.0323 15.5 12.9998C15.5 10.9673 16.645 9.24982 18 9.24982ZM27.375 9.24982C26.8777 9.24982 26.4008 9.44737 26.0492 9.799C25.6975 10.1506 25.5 10.6275 25.5 11.1248C25.5 11.6221 25.6975 12.099 26.0492 12.4506C26.4008 12.8023 26.8777 12.9998 27.375 12.9998C27.8723 12.9998 28.3492 12.8023 28.7008 12.4506C29.0525 12.099 29.25 11.6221 29.25 11.1248C29.25 10.6275 29.0525 10.1506 28.7008 9.799C28.3492 9.44737 27.8723 9.24982 27.375 9.24982ZM8.625 12.9998C8.12772 12.9998 7.65081 13.1974 7.29917 13.549C6.94754 13.9006 6.75 14.3775 6.75 14.8748C6.75 15.3721 6.94754 15.849 7.29917 16.2006C7.65081 16.5523 8.12772 16.7498 8.625 16.7498C9.12228 16.7498 9.59919 16.5523 9.95083 16.2006C10.3025 15.849 10.5 15.3721 10.5 14.8748C10.5 14.3775 10.3025 13.9006 9.95083 13.549C9.59919 13.1974 9.12228 12.9998 8.625 12.9998Z" fill="black"/>
</svg>
