<svg width="36" height="36" viewBox="0 0 36 36" fill="none" xmlns="http://www.w3.org/2000/svg">
<path fill-rule="evenodd" clip-rule="evenodd" d="M17.9177 0.979004H18.0824C19.5058 0.979004 20.6917 0.979004 21.6322 1.10567C22.6266 1.23867 23.5243 1.53317 24.2447 2.25359C24.9667 2.97559 25.2612 3.87334 25.3942 4.86609C25.4892 5.56275 25.513 6.39242 25.5193 7.35192C26.5453 7.38517 27.4605 7.44692 28.2743 7.55459C30.13 7.80475 31.6326 8.33042 32.8185 9.51475C34.0028 10.7007 34.5285 12.2033 34.7787 14.0589C35.0209 15.8639 35.0209 18.1677 35.0209 21.0778V21.2552C35.0209 24.1653 35.0209 26.4707 34.7787 28.2741C34.5285 30.1298 34.0028 31.6323 32.8185 32.8183C31.6326 34.0026 30.13 34.5283 28.2743 34.7784C26.4693 35.0207 24.1656 35.0207 21.2554 35.0207H14.7447C11.8346 35.0207 9.52925 35.0207 7.72583 34.7784C5.87016 34.5283 4.36758 34.0026 3.18166 32.8183C1.99733 31.6323 1.47166 30.1298 1.2215 28.2741C0.979248 26.4691 0.979248 24.1653 0.979248 21.2552V21.0778C0.979248 18.1677 0.979248 15.8623 1.2215 14.0589C1.47166 12.2033 1.99733 10.7007 3.18166 9.51475C4.36758 8.33042 5.87016 7.80475 7.72583 7.55459C8.64023 7.44137 9.5597 7.37373 10.4808 7.35192C10.4872 6.39242 10.5125 5.56275 10.6059 4.86609C10.7389 3.87334 11.0334 2.97559 11.7538 2.25359C12.4758 1.53317 13.3736 1.24025 14.3663 1.10567C15.3084 0.979004 16.4959 0.979004 17.9177 0.979004ZM12.8574 7.3155C13.4559 7.31234 14.0845 7.31234 14.7447 7.31234H21.2554C21.9157 7.31234 22.5442 7.31234 23.1427 7.3155C23.1364 6.413 23.1142 5.73217 23.0414 5.18275C22.9417 4.45284 22.7722 4.13934 22.5664 3.9335C22.3606 3.72767 22.0471 3.55825 21.3156 3.4585C20.5524 3.35717 19.5264 3.354 18.0001 3.354C16.4737 3.354 15.4477 3.35717 14.683 3.46009C13.9531 3.55825 13.6396 3.72767 13.4337 3.93509C13.2279 4.14092 13.0585 4.45284 12.9587 5.18275C12.8859 5.73059 12.8637 6.41142 12.8574 7.3155ZM8.04091 9.909C6.44808 10.1228 5.52975 10.5249 4.85841 11.1947C4.19025 11.8644 3.78808 12.7828 3.57433 14.3756C3.35583 16.0017 3.35266 18.1471 3.35266 21.1665C3.35266 24.1859 3.35583 26.3313 3.57433 27.959C3.78808 29.5503 4.19025 30.4686 4.86 31.1383C5.52975 31.8081 6.44808 32.2103 8.04091 32.424C9.66858 32.6425 11.8124 32.6457 14.8318 32.6457H21.1652C24.1846 32.6457 26.33 32.6425 27.9577 32.424C29.5489 32.2103 30.4672 31.8081 31.137 31.1383C31.8067 30.4686 32.2089 29.5503 32.4227 27.9574C32.6412 26.3313 32.6443 24.1859 32.6443 21.1665C32.6443 18.1471 32.6412 16.0033 32.4227 14.374C32.2089 12.7828 31.8067 11.8644 31.137 11.1947C30.4672 10.5249 29.5489 10.1228 27.9561 9.909C26.33 9.6905 24.1846 9.68734 21.1652 9.68734H14.8318C11.8124 9.68734 9.67016 9.6905 8.04091 9.909ZM18.0001 13.6457C18.315 13.6457 18.6171 13.7708 18.8398 13.9935C19.0625 14.2162 19.1876 14.5182 19.1876 14.8332V14.849C20.9118 15.2828 22.3542 16.6429 22.3542 18.5271C22.3542 18.842 22.2291 19.1441 22.0064 19.3668C21.7837 19.5895 21.4817 19.7146 21.1667 19.7146C20.8518 19.7146 20.5498 19.5895 20.3271 19.3668C20.1044 19.1441 19.9792 18.842 19.9792 18.5271C19.9792 17.9191 19.3047 17.0768 18.0001 17.0768C16.6954 17.0768 16.0209 17.9191 16.0209 18.5271C16.0209 19.1351 16.6954 19.979 18.0001 19.979C20.193 19.979 22.3542 21.499 22.3542 23.8059C22.3542 25.6901 20.9118 27.0486 19.1876 27.484V27.4998C19.1876 27.8148 19.0625 28.1168 18.8398 28.3395C18.6171 28.5622 18.315 28.6873 18.0001 28.6873C17.6851 28.6873 17.3831 28.5622 17.1604 28.3395C16.9377 28.1168 16.8126 27.8148 16.8126 27.4998V27.484C15.0883 27.0502 13.6459 25.6901 13.6459 23.8059C13.6459 23.491 13.771 23.1889 13.9937 22.9662C14.2164 22.7435 14.5185 22.6184 14.8334 22.6184C15.1484 22.6184 15.4504 22.7435 15.6731 22.9662C15.8958 23.1889 16.0209 23.491 16.0209 23.8059C16.0209 24.4139 16.6954 25.2563 18.0001 25.2563C19.3047 25.2563 19.9792 24.4139 19.9792 23.8059C19.9792 23.1979 19.3047 22.354 18.0001 22.354C15.8072 22.354 13.6459 20.834 13.6459 18.5271C13.6459 16.6429 15.0883 15.2828 16.8126 14.849V14.8332C16.8126 14.5182 16.9377 14.2162 17.1604 13.9935C17.3831 13.7708 17.6851 13.6457 18.0001 13.6457Z" fill="black"/>
</svg>
