<svg width="31" height="35" viewBox="0 0 31 35" fill="none" xmlns="http://www.w3.org/2000/svg">
<path fill-rule="evenodd" clip-rule="evenodd" d="M18.4588 2.50011H10.7088C10.463 3.70086 9.86998 4.80299 9.00332 5.66965C8.13666 6.53631 7.03453 7.12934 5.83378 7.37511C5.8333 7.73622 5.8333 8.09733 5.83378 8.45844C7.03453 8.70421 8.13666 9.29724 9.00332 10.1639C9.86998 11.0306 10.463 12.1327 10.7088 13.3334H18.4588C18.7045 12.1327 19.2976 11.0306 20.1642 10.1639C21.0309 9.29724 22.133 8.70421 23.3338 8.45844C23.3341 8.09733 23.3341 7.73622 23.3338 7.37511C22.133 7.12934 21.0309 6.53631 20.1642 5.66965C19.2976 4.80299 18.7045 3.70086 18.4588 2.50011ZM19.4671 0.0051075C19.0088 0.000107496 18.5221 0.000107461 18.0038 0.000107461H11.1638C10.6471 0.000107461 10.1588 0.000107496 9.70211 0.0051075C9.61109 -0.00309156 9.51944 -0.0014151 9.42878 0.0101075C8.67544 0.0234409 8.00711 0.0551073 7.42711 0.133441C6.38044 0.273441 5.43544 0.583441 4.67711 1.34177C3.91711 2.10177 3.60711 3.04677 3.46711 4.09177C3.38878 4.67344 3.35711 5.34177 3.34378 6.09511C3.33236 6.18522 3.33069 6.2763 3.33878 6.36677C3.33378 6.82511 3.33378 7.31344 3.33378 7.83011V8.00344C3.33378 8.52011 3.33378 9.00844 3.33878 9.46677C3.3307 9.55725 3.33238 9.64833 3.34378 9.73844C3.35711 10.4934 3.38878 11.1601 3.46711 11.7401C3.60711 12.7868 3.91711 13.7318 4.67711 14.4901C5.43544 15.2501 6.38044 15.5601 7.42711 15.7001C8.00711 15.7784 8.67544 15.8101 9.42878 15.8234C9.51943 15.8351 9.61109 15.8368 9.70211 15.8284C10.1588 15.8334 10.6471 15.8334 11.1638 15.8334H18.0038C18.5204 15.8334 19.0088 15.8334 19.4671 15.8284C19.5576 15.8367 19.6487 15.835 19.7388 15.8234C20.4938 15.8101 21.1621 15.7784 21.7404 15.7001C22.7871 15.5601 23.7321 15.2501 24.4904 14.4901C25.2504 13.7318 25.5604 12.7868 25.7004 11.7401C25.7794 11.0758 25.8206 10.4075 25.8238 9.73844C25.8351 9.64832 25.8368 9.55725 25.8288 9.46677C25.8338 9.00844 25.8338 8.52011 25.8338 8.00344V7.83011C25.8338 7.31344 25.8338 6.82511 25.8288 6.36677C25.837 6.27631 25.8354 6.18521 25.8238 6.09511C25.8203 5.4261 25.7791 4.75782 25.7004 4.09344C25.5604 3.04677 25.2504 2.10177 24.4921 1.34344C23.7321 0.583441 22.7871 0.273441 21.7421 0.133441C21.0772 0.0546477 20.4083 0.0134712 19.7388 0.0101075C19.6487 -0.00134673 19.5576 -0.00302318 19.4671 0.0051075ZM21.0738 2.57344C21.2625 3.07207 21.555 3.52488 21.932 3.90187C22.309 4.27885 22.7618 4.5714 23.2604 4.76011C23.25 4.64875 23.2372 4.53761 23.2221 4.42677C23.1204 3.65677 22.9404 3.32677 22.7221 3.11011C22.5054 2.89344 22.1771 2.71511 21.4088 2.61011C21.2979 2.59563 21.1868 2.58341 21.0754 2.57344M23.2621 11.0734C22.7635 11.2622 22.3107 11.5547 21.9337 11.9317C21.5567 12.3087 21.2642 12.7615 21.0754 13.2601C21.1921 13.2501 21.3038 13.2368 21.4088 13.2234C22.1788 13.1184 22.5088 12.9401 22.7254 12.7234C22.9421 12.5068 23.1221 12.1768 23.2254 11.4068C23.2388 11.3018 23.2521 11.1901 23.2621 11.0734ZM8.09544 13.2601C7.90674 12.7615 7.61419 12.3087 7.2372 11.9317C6.86022 11.5547 6.4074 11.2622 5.90878 11.0734C5.92044 11.1901 5.93211 11.3018 5.94711 11.4068C6.05044 12.1768 6.22878 12.5068 6.44711 12.7234C6.66378 12.9401 6.99211 13.1184 7.76044 13.2234C7.86711 13.2368 7.97878 13.2501 8.09544 13.2601ZM5.90878 4.76011C6.4074 4.5714 6.86022 4.27885 7.2372 3.90187C7.61419 3.52488 7.90674 3.07207 8.09544 2.57344C7.97878 2.58344 7.86711 2.59677 7.76211 2.61177C6.99211 2.71511 6.66211 2.89344 6.44544 3.11177C6.22878 3.32844 6.05044 3.65677 5.94544 4.42511L5.90878 4.76011ZM14.5838 7.50011C14.4733 7.50011 14.3673 7.54401 14.2892 7.62215C14.211 7.70029 14.1671 7.80627 14.1671 7.91677C14.1671 8.02728 14.211 8.13326 14.2892 8.2114C14.3673 8.28954 14.4733 8.33344 14.5838 8.33344C14.6943 8.33344 14.8003 8.28954 14.8784 8.2114C14.9565 8.13326 15.0004 8.02728 15.0004 7.91677C15.0004 7.80627 14.9565 7.70029 14.8784 7.62215C14.8003 7.54401 14.6943 7.50011 14.5838 7.50011ZM11.6671 7.91677C11.6671 7.14323 11.9744 6.40136 12.5214 5.85438C13.0684 5.3074 13.8102 5.00011 14.5838 5.00011C15.3573 5.00011 16.0992 5.3074 16.6462 5.85438C17.1932 6.40136 17.5004 7.14323 17.5004 7.91677C17.5004 8.69032 17.1932 9.43219 16.6462 9.97917C16.0992 10.5262 15.3573 10.8334 14.5838 10.8334C13.8102 10.8334 13.0684 10.5262 12.5214 9.97917C11.9744 9.43219 11.6671 8.69032 11.6671 7.91677ZM9.05711 20.3301C12.1671 19.7284 15.4954 19.8634 18.1904 21.4701C18.5671 21.6951 18.9238 21.9768 19.2321 22.3234C19.8588 23.0284 20.1821 23.9018 20.1971 24.7784C20.5154 24.5734 20.8354 24.3451 21.1588 24.1001L24.1721 21.8251C24.9267 21.2703 25.8388 20.9711 26.7754 20.9711C27.7121 20.9711 28.6242 21.2703 29.3788 21.8251C30.7704 22.8751 31.3271 24.7634 30.3288 26.3634C29.6204 27.4984 28.5538 29.0701 27.4671 30.0768C26.3671 31.0934 24.8054 31.9501 23.6238 32.5201C22.1871 33.2134 20.6371 33.5968 19.1288 33.8401C16.0454 34.3401 12.8388 34.2634 9.79211 33.6351C8.22098 33.3118 6.62117 33.1482 5.01711 33.1468H1.25044C0.918924 33.1468 0.600981 33.0151 0.366561 32.7807C0.13214 32.5462 0.000444531 32.2283 0.000444531 31.8968C0.000444531 31.5653 0.13214 31.2473 0.366561 31.0129C0.600981 30.7785 0.918924 30.6468 1.25044 30.6468H5.01711C6.78711 30.6468 8.57545 30.8318 10.2971 31.1868C13.0741 31.7566 15.9312 31.8193 18.7304 31.3718C20.1104 31.1484 21.4004 30.8168 22.5371 30.2684C23.6754 29.7184 24.9554 28.9951 25.7671 28.2434C26.5888 27.4818 27.5071 26.1634 28.2088 25.0401C28.4204 24.7001 28.3904 24.2118 27.8721 23.8201C27.2554 23.3534 26.2938 23.3534 25.6788 23.8201L22.6671 26.0951C21.4638 27.0034 19.9838 27.9751 18.1488 28.2684C17.9565 28.2989 17.7637 28.3256 17.5704 28.3484C16.4027 28.4832 15.2239 28.4943 14.0538 28.3818C13.8874 28.3703 13.7251 28.3256 13.5763 28.2504C13.4275 28.1753 13.2952 28.0711 13.1872 27.944C13.0793 27.8169 12.9979 27.6695 12.9478 27.5105C12.8976 27.3515 12.8798 27.1841 12.8954 27.018C12.911 26.852 12.9596 26.6908 13.0384 26.5439C13.1172 26.397 13.2246 26.2673 13.3543 26.1625C13.484 26.0577 13.6333 25.9799 13.7935 25.9337C13.9537 25.8875 14.1215 25.8738 14.2871 25.8934C15.2117 25.9832 16.1429 25.9816 17.0671 25.8884L17.1171 25.8834C17.2726 25.7869 17.4048 25.6571 17.504 25.5034C17.6033 25.3496 17.6672 25.1757 17.6911 24.9943C17.715 24.8128 17.6983 24.6284 17.6423 24.4541C17.5863 24.2799 17.4923 24.1203 17.3671 23.9868C17.2343 23.8406 17.0797 23.7158 16.9088 23.6168C14.9404 22.4418 12.3104 22.2468 9.53211 22.7834C6.81836 23.3294 4.24573 24.4271 1.97378 26.0084C1.83983 26.1034 1.68848 26.1711 1.52838 26.2076C1.36828 26.2441 1.20255 26.2487 1.04067 26.2212C0.878786 26.1936 0.723914 26.1345 0.584895 26.0471C0.445876 25.9597 0.325434 25.8457 0.230445 25.7118C0.135455 25.5778 0.0677786 25.4265 0.0312796 25.2664C-0.00521944 25.1063 -0.00982651 24.9405 0.0177215 24.7787C0.0452696 24.6168 0.104433 24.4619 0.191835 24.3229C0.279236 24.1839 0.393163 24.0634 0.527111 23.9684C3.08986 22.1817 5.99375 20.9431 9.05711 20.3301Z" fill="black"/>
</svg>
