<svg width="42" height="34" viewBox="0 0 42 34" fill="none" xmlns="http://www.w3.org/2000/svg">
<path d="M37.5 8.33333L20.8333 18.75L4.16667 8.33333V4.16667L20.8333 14.5833L37.5 4.16667M37.5 0H4.16667C1.85417 0 0 1.85417 0 4.16667V29.1667C0 30.2717 0.438987 31.3315 1.22039 32.1129C2.00179 32.8943 3.0616 33.3333 4.16667 33.3333H37.5C38.6051 33.3333 39.6649 32.8943 40.4463 32.1129C41.2277 31.3315 41.6667 30.2717 41.6667 29.1667V4.16667C41.6667 3.0616 41.2277 2.00179 40.4463 1.22039C39.6649 0.438987 38.6051 0 37.5 0Z" fill="white"/>
</svg>
