<svg width="30" height="42" viewBox="0 0 30 42" fill="none" xmlns="http://www.w3.org/2000/svg">
<path d="M15.0001 19.9587C13.6187 19.9587 12.294 19.4099 11.3172 18.4332C10.3405 17.4564 9.79175 16.1317 9.79175 14.7503C9.79175 13.369 10.3405 12.0442 11.3172 11.0675C12.294 10.0907 13.6187 9.54199 15.0001 9.54199C16.3814 9.54199 17.7062 10.0907 18.6829 11.0675C19.6597 12.0442 20.2084 13.369 20.2084 14.7503C20.2084 15.4343 20.0737 16.1116 19.812 16.7435C19.5502 17.3754 19.1666 17.9495 18.6829 18.4332C18.1993 18.9168 17.6251 19.3005 16.9932 19.5622C16.3613 19.8239 15.684 19.9587 15.0001 19.9587ZM15.0001 0.166992C11.1323 0.166992 7.42301 1.70345 4.68811 4.43835C1.9532 7.17326 0.416748 10.8826 0.416748 14.7503C0.416748 25.6878 15.0001 41.8337 15.0001 41.8337C15.0001 41.8337 29.5834 25.6878 29.5834 14.7503C29.5834 10.8826 28.047 7.17326 25.3121 4.43835C22.5771 1.70345 18.8678 0.166992 15.0001 0.166992Z" fill="white"/>
</svg>
