<svg width="18" height="10" viewBox="0 0 18 10" fill="none" xmlns="http://www.w3.org/2000/svg">
<path d="M17.7809 0.468982C17.9217 0.609429 18.0009 0.800048 18.0012 0.998921C18.0015 1.19779 17.9228 1.38864 17.7824 1.52948L9.58486 9.75548C9.50819 9.83258 9.41704 9.89377 9.31664 9.93552C9.21625 9.97727 9.10859 9.99876 8.99986 9.99876C8.89113 9.99876 8.78347 9.97727 8.68308 9.93552C8.58268 9.89377 8.49153 9.83258 8.41486 9.75548L0.22036 1.52948C0.148832 1.46019 0.0918186 1.37736 0.0526467 1.2858C0.0134748 1.19424 -0.0070712 1.0958 -0.00779281 0.996218C-0.00851442 0.896636 0.0106029 0.797907 0.0484438 0.705792C0.0862848 0.613677 0.142091 0.530021 0.212608 0.459704C0.283124 0.389386 0.366939 0.333816 0.45916 0.296236C0.551382 0.258656 0.650164 0.239818 0.749743 0.240822C0.849323 0.241825 0.947706 0.262649 1.03915 0.30208C1.1306 0.341511 1.21327 0.398758 1.28236 0.470482L8.99986 8.21798L16.7204 0.470482C16.8608 0.329679 17.0514 0.250423 17.2503 0.250142C17.4492 0.24986 17.64 0.328577 17.7809 0.468982Z" fill="white"/>
</svg>
