<svg width="31" height="31" viewBox="0 0 31 31" fill="none" xmlns="http://www.w3.org/2000/svg">
<path d="M15.4999 28.4167C13.7131 28.4167 12.0339 28.0774 10.4624 27.3989C8.89089 26.7203 7.52388 25.8002 6.36138 24.6386C5.19888 23.4769 4.27878 22.1099 3.60109 20.5375C2.92339 18.9652 2.58411 17.286 2.58325 15.5C2.58239 13.7141 2.92167 12.0349 3.60109 10.4625C4.2805 8.89015 5.2006 7.52314 6.36138 6.3615C7.52216 5.19986 8.88917 4.27976 10.4624 3.60121C12.0357 2.92265 13.7148 2.58337 15.4999 2.58337C17.285 2.58337 18.9642 2.92265 20.5374 3.60121C22.1107 4.27976 23.4777 5.19986 24.6385 6.3615C25.7992 7.52314 26.7198 8.89015 27.4 10.4625C28.0803 12.0349 28.4192 13.7141 28.4166 15.5C28.414 17.286 28.0747 18.9652 27.3988 20.5375C26.7228 22.1099 25.8027 23.4769 24.6385 24.6386C23.4742 25.8002 22.1072 26.7207 20.5374 27.4002C18.9676 28.0796 17.2884 28.4184 15.4999 28.4167Z" fill="#F5EEF7"/>
<path d="M21.8766 11.7937L12.0657 21.862C11.9794 21.9504 11.8626 22 11.7407 22C11.6188 22 11.5019 21.9504 11.4157 21.862L7.12343 17.4571C7.04219 17.3676 6.99797 17.2493 7.00007 17.127C7.00217 17.0048 7.05044 16.8881 7.1347 16.8016C7.21896 16.7152 7.33263 16.6656 7.45177 16.6635C7.57091 16.6613 7.68622 16.7067 7.7734 16.7901L11.7407 20.8607L21.2266 11.1267C21.3138 11.0433 21.4291 10.9979 21.5482 11.0001C21.6674 11.0022 21.781 11.0518 21.8653 11.1382C21.9496 11.2247 21.9978 11.3414 21.9999 11.4636C22.002 11.5859 21.9578 11.7042 21.8766 11.7937Z" fill="#653780"/>
</svg>
