<?xml version="1.0" encoding="UTF-8"?>
<!DOCTYPE svg PUBLIC "-//W3C//DTD SVG 1.1//EN" "http://www.w3.org/Graphics/SVG/1.1/DTD/svg11.dtd">
<!-- Creator: CorelDRAW 2021 (64-Bit) -->
<svg xmlns="http://www.w3.org/2000/svg" xml:space="preserve" width="1.51333in" height="1.50052in" version="1.1" style="shape-rendering:geometricPrecision; text-rendering:geometricPrecision; image-rendering:optimizeQuality; fill-rule:evenodd; clip-rule:evenodd"
viewBox="0 0 319.01 316.31"
 xmlns:xlink="http://www.w3.org/1999/xlink"
 xmlns:xodm="http://www.corel.com/coreldraw/odm/2003">
 <defs>
  <style type="text/css">
   <![CDATA[
    .fil0 {fill:#15406B}
   ]]>
  </style>
 </defs>
 <g id="Layer_x0020_1">
  <metadata id="CorelCorpID_0Corel-Layer"/>
  <path class="fil0" d="M144.05 157.4l-46.38 0 0 89.94 20.38 0 0 -69.56 28.81 0c0,4.21 -1.41,8.44 -1.41,12.65 0,11.21 4.26,23.53 8.84,30.51 12.3,18.72 28.58,26.41 52.29,26.41 13.12,-0 26.23,0 39.35,0l-16.86 -16.16c-5.8,-4.45 -1.64,-4.27 -11.94,-4.22 -5.54,0.03 -11.39,0.17 -16.89,0.03 -17.26,-0.44 -33.7,-16.81 -33.7,-33.05 0,-15.29 4.44,-25.56 16.46,-33.43 10.88,-7.12 22.55,-5.92 39.75,-5.92 -2.08,-3.1 -8.35,-8.7 -11.42,-11.77 -9.76,-9.76 -6.64,-8.61 -14.58,-8.61 0.44,-5.35 1.41,-5.34 1.41,-13.35 0,-11.63 -4.12,-22.6 -8.84,-29.81 -5.46,-8.34 -11.61,-13.94 -20.26,-19.09 -9.54,-5.68 -20.43,-7.33 -32.03,-7.32 -13.12,0.01 -26.23,0 -39.35,0 0.78,2.91 9.49,10.55 12.12,13.17 1.32,1.32 5.21,5.61 6.3,6.35 5.66,3.84 37.16,-5.89 52.16,13.18 9.22,11.72 12.32,24.02 6.22,38.48 -4.8,11.38 -18.11,21.56 -30.43,21.56zm-132.1 42.86l0 -0.7 -0.82 0.59 0.82 0.12 19.08 13.95c31.45,25.34 32.11,62.8 35.73,65.45 0,-6.84 0.77,-9.44 0.11,-15.57 -2.52,-23.51 -10.12,-40.27 -30.47,-53.86 -4.92,-3.28 -17.07,-9.81 -24.46,-9.98zm295.12 -84.32l0 0.7 0.82 -0.59 -0.82 -0.12c-4.39,-5.99 -30.94,-13.78 -46.38,-52.69 -1.8,-4.53 -7.02,-21.16 -7.02,-26.71 -2.41,1.77 -1.44,9.71 -1.43,15.48 0.01,5.49 1.15,10.05 2.27,14.59 3,12.1 9.94,23.59 18.64,31.95 1.73,1.66 2.77,2.21 4.58,3.85 5.87,5.29 21.88,13.36 29.33,13.53zm-222.04 175.67l-0.7 0 0.59 0.82 0.12 -0.82c1.07,0 27.33,-4.65 33.66,-4.21 39.41,2.77 54.82,20.59 61.9,22.48 -8.42,-12.58 -25.28,-23.91 -41.03,-27.83 -17.3,-4.31 -36.28,-1.58 -51.71,7.47l-2.82 2.1zm148.96 -267.01l0.7 0 -0.59 -0.82 -0.12 0.82c-3.65,0.08 -8.61,1.56 -12.54,2.22 -4.81,0.8 -8.48,0.9 -14.12,1.34 -13.12,1.01 -26.2,-0.97 -37.99,-5.65 -10.57,-4.2 -20.81,-9.88 -30.21,-16.17 1.2,4.47 12.8,14.06 16.75,16.98 6.2,4.58 14.8,8.67 23.57,10.86 10.48,2.61 19.29,2.89 30.35,0.68 6.17,-1.24 21.65,-6.78 24.19,-10.24zm-113.13 281.07c0,13.79 21.08,14.82 21.08,-0.7 0,-12.22 -21.08,-12.75 -21.08,0.7zm153.18 -232.58c0,12.75 21.08,15.97 21.08,-1.41 0,-2.22 -1.78,-4.94 -3.01,-6.12 -6.52,-6.3 -18.07,-1.36 -18.07,7.53zm-274.04 56.21c0,15.14 21.08,15.17 21.08,0 0,-12.49 -21.08,-12.49 -21.08,0zm177.07 -119.45c0,13.81 21.08,15.51 21.08,-0.7 0,-11.77 -21.08,-12.83 -21.08,0.7zm57.62 271.23c0,17.63 21.08,13.51 21.08,1.41 0,-13.91 -21.08,-13.47 -21.08,-1.41zm-210.8 -39.35c0,16.82 21.08,14 21.08,1.41 0,-14.8 -21.08,-12.9 -21.08,-1.41zm274.04 -55.51c0,12.66 21.08,15.52 21.08,-1.41 0,-11.49 -21.08,-13.4 -21.08,1.41zm-224.85 -141.94c16.57,0 13.79,-21.08 1.41,-21.08 -15.01,0 -13.42,21.08 -1.41,21.08zm128.59 260.69c1.34,-0.9 14.1,-19.42 18.08,-23.37 1.59,-1.58 2.63,-2.63 4.22,-4.22 8.3,-8.34 20.09,-14.4 31.1,-18.79 4.49,-1.79 21.19,-7.02 26.71,-7.02l0 -1.41c-21.76,0 -35.94,0.22 -53.91,13.54 -12.77,9.47 -22.03,23.41 -26.19,41.27zm-172.86 -193.23c0,19.15 -0.5,23.46 -7.63,40.86 -2.75,6.71 -6.62,13.1 -10.34,19.17 -1.21,1.97 -3.32,4.9 -3.81,6.73 13.21,-8.85 29.51,-30.74 29.51,-52.7 0,-12.28 0.24,-14.96 -3.94,-26.97 -1.42,-4.07 -5.38,-13.27 -8,-15.19 1.86,7.99 4.22,18.56 4.22,28.11zm8.43 -45.67c20.6,0 35.35,0.54 53.61,-13.14 7.33,-5.49 11.22,-9.64 16.38,-17.35 3.63,-5.44 9.47,-16.55 10.11,-24.32 -4.65,3.41 -16.69,34.02 -54.36,46.82l-19.6 5.7c-3.04,0.61 -4.74,0.36 -6.15,2.29zm245.23 125.07c0,14.05 2.81,30.95 11.95,41.46 -0.96,-11.57 -4.22,-12.84 -4.22,-35.13 0,-10.56 3.01,-24.03 7.49,-33.26 3.32,-6.84 6.04,-13 10.49,-19.73 1.56,-2.36 3.16,-3.96 3.81,-6.73 -13.28,8.9 -29.51,31.25 -29.51,53.4z"/>
 </g>
</svg>
