<?xml version="1.0" encoding="UTF-8"?>
<!DOCTYPE svg PUBLIC "-//W3C//DTD SVG 1.1//EN" "http://www.w3.org/Graphics/SVG/1.1/DTD/svg11.dtd">
<!-- Creator: CorelDRAW 2021 (64-Bit) -->
<svg xmlns="http://www.w3.org/2000/svg" xml:space="preserve" width="5.53334in" height="1.50052in" version="1.1" style="shape-rendering:geometricPrecision; text-rendering:geometricPrecision; image-rendering:optimizeQuality; fill-rule:evenodd; clip-rule:evenodd"
viewBox="0 0 4264.88 1156.54"
 xmlns:xlink="http://www.w3.org/1999/xlink"
 xmlns:xodm="http://www.corel.com/coreldraw/odm/2003">
 <defs>
  <style type="text/css">
   <![CDATA[
    .fil3 {fill:#133E69}
    .fil2 {fill:#143F69}
    .fil1 {fill:#14416A}
    .fil0 {fill:#15406B}
   ]]>
  </style>
 </defs>
 <g id="Layer_x0020_1">
  <metadata id="CorelCorpID_0Corel-Layer"/>
  <g id="_2404021690000">
   <g>
    <path class="fil0" d="M2317.42 688.75c-16.25,0 -30.83,-4.77 -30.83,-25.69l0 -164.43c0,-25.74 14.14,-28.26 30.83,-28.26 18.53,0 23.12,17.44 23.12,35.97l0 146.44c0,17.92 -5.42,35.97 -23.12,35.97zm-30.83 -254.35l0 -38.54 -89.92 0 0 518.98 89.92 0 0 -187.55 10.8 14.89c5.76,7.11 6.38,8.49 14.04,14.22 49.64,37.12 116.47,3.44 116.47,-83.07l0 -190.12c0,-94.57 -84.09,-128.67 -134.65,-57.57l-6.66 8.76z"/>
    <path class="fil0" d="M1400.22 478.07l-48.82 0 0 -143.87c83.56,0 77.08,-7.64 77.08,107.91 0,17.56 -11.31,35.97 -28.26,35.97zm-138.74 287.75l89.92 0 0 -200.4c43.35,0 97.13,3.13 129.14,-25.02 18.46,-16.23 37.86,-41.77 37.86,-75.18l0 -113.05c0,-67.88 -54.6,-105.34 -123.32,-105.34l-133.6 0 0 518.98z"/>
    <path class="fil0" d="M1950.03 493.49c0,-17.65 18.58,-29.31 36.07,-23.42 16.61,5.6 20.45,22.36 20.45,43.97l0 30.83 -56.52 0 0 -51.38zm-87.35 -2.57l0 177.28c0,65.92 51.49,102.77 118.18,102.77 75.94,0 113.04,-43.78 113.04,-118.18l-84.96 -0.35c-4.92,5.06 4.32,48.3 -40.77,36.37 -25.27,-6.68 -18.14,-36.08 -18.14,-77.13l141.3 0 0 -118.18c0,-87 -88.24,-122.19 -159.67,-98.01 -14.53,4.92 -23.47,10.57 -33.86,20.09 -0.39,0.36 -0.97,0.85 -1.36,1.21 -19.19,17.65 -33.78,46.99 -33.78,74.13z"/>
    <path class="fil0" d="M3198.66 765.82l69.37 0 0 -256.92c0,-16.08 2.96,-28.7 9.28,-39.54 14.8,-25.38 77.1,-26.27 78.2,26.57l-0.12 231.35c-0.04,46.47 -13.55,38.54 69.37,38.54l0 -290.32c0,-96.88 -102.53,-107.68 -143.18,-58.39 -5.7,6.91 -6.81,12.35 -13.55,17.29l0 -187.55 -69.37 0 0 518.98z"/>
    <path class="fil0" d="M2530.67 395.86l0 220.95c0,46.68 5.91,82.33 26.39,109.78 45.37,60.81 147.3,56.91 189.87,3.71 20.56,-25.69 27.82,-63.66 27.82,-108.35 0,-13.4 -27.2,-7.71 -64.23,-7.71 -20.66,0 11.64,70.16 -39.67,86.24 -40.26,12.62 -68.24,-14.24 -68.24,-52.84l0 -282.61c0,-72.43 102,-81.49 100.19,7.72 -0.64,31.61 -9.06,25.68 64.24,25.68 7.91,0 7.71,-3.56 7.71,-10.27 0,-87.13 -32.91,-146.45 -125.89,-146.45 -20.12,0 -40.57,6.17 -54.02,12.78 -52.38,25.74 -64.16,78.71 -64.16,141.38z"/>
    <path class="fil0" d="M2982.85 704.16c-19.36,0 -38.54,-14.69 -38.54,-33.4l0 -182.41c0,-40.26 74.51,-47.92 74.51,5.14l0 172.14c0,11.26 -3.71,20.09 -9.46,26.5 -6.82,7.6 -19.84,12.03 -26.5,12.03zm-107.91 -215.81l0 182.41c0,104.28 129.88,125.95 183.08,72.6 20.71,-20.77 30.16,-43.38 30.16,-75.17l0 -177.28c0,-140.44 -213.24,-135.14 -213.24,-2.57z"/>
    <path class="fil0" d="M3645.7 704.16c-19.36,0 -38.54,-14.69 -38.54,-33.4l0 -182.41c0,-40.26 74.51,-47.92 74.51,5.14l0 172.14c0,23.44 -17.57,38.54 -35.97,38.54zm-107.91 -215.81l0 182.41c0,131.48 213.25,138.29 213.25,-2.57l0 -177.28c0,-140.44 -213.25,-135.14 -213.25,-2.57z"/>
    <path class="fil0" d="M4141.56 395.86l-38.54 0 0 64.23 38.54 0 0 223.52c0,25.48 10.9,48.87 27.53,64.96 20.56,19.9 55.97,19.82 88.09,19.82 4.24,0 6.54,-2.49 7.71,-7.07l0 -52.02c0,-19.34 -53.95,7.88 -53.95,-30.83l0 -218.38 53.95 0 0 -64.23 -53.95 0 0 -100.2c0,-5.92 -1.79,-7.71 -7.71,-7.71l-61.66 0 0 107.91z"/>
    <path class="fil0" d="M1698.25 439.53l0 -43.68 -89.92 0 0 369.97c106.18,0 90,8.73 89.92,-35.97l-0.02 -174.73c-0.39,-67.1 35.98,-71.92 87.37,-71.92l0 -95.06c-53.86,0 -74.58,42.02 -87.35,51.38z"/>
    <path class="fil0" d="M3930.89 444.67l0 -48.81 -69.37 0 0 362.26c0,5.92 1.79,7.71 7.71,7.71l61.66 0 0 -223.52c0,-69.52 43.04,-84.78 102.77,-84.78l0 -69.37c-34.91,0 -61.71,14 -82.87,35.31 -5.4,5.44 -15.88,18.26 -19.9,21.21z"/>
   </g>
   <g>
    <path class="fil0" d="M526.69 575.53l-169.57 0 0 328.86 74.51 0 0 -254.35 105.34 0c0,15.38 -5.14,30.86 -5.14,46.25 0,40.97 15.57,86.03 32.33,111.55 44.96,68.46 104.51,96.56 191.19,96.55 47.96,-0 95.92,0 143.88,0l-61.66 -59.09c-21.2,-16.28 -5.98,-15.62 -43.67,-15.42 -20.24,0.1 -41.63,0.62 -61.76,0.1 -63.11,-1.62 -123.23,-61.47 -123.23,-120.85 0,-55.92 16.25,-93.47 60.19,-122.23 39.76,-26.03 82.47,-21.65 145.35,-21.65 -7.6,-11.34 -30.54,-31.82 -41.75,-43.04 -35.7,-35.7 -24.28,-31.47 -53.31,-31.47 1.63,-19.55 5.14,-19.54 5.14,-48.81 0,-42.51 -15.06,-82.62 -32.32,-108.98 -19.96,-30.48 -42.45,-50.98 -74.08,-69.79 -34.9,-20.76 -74.69,-26.79 -117.12,-26.76 -47.96,0.03 -95.92,0 -143.87,0 2.84,10.64 34.71,38.57 44.32,48.17 4.83,4.83 19.05,20.5 23.04,23.2 20.69,14.03 135.85,-21.54 190.73,48.2 33.71,42.84 45.05,87.82 22.75,140.71 -17.54,41.61 -66.2,78.85 -111.27,78.85z"/>
    <path class="fil0" d="M1032.82 698.85c0,51.37 10.28,113.16 43.68,151.59 -3.52,-42.29 -15.42,-46.93 -15.42,-128.46 0,-38.63 11.02,-87.86 27.39,-121.62 12.13,-25.02 22.08,-47.53 38.34,-72.14 5.69,-8.61 11.55,-14.47 13.91,-24.62 -48.57,32.52 -107.91,114.25 -107.91,195.26z"/>
    <path class="fil0" d="M855.55 89.95c-13.34,0.3 -31.49,5.7 -45.85,8.11 -17.58,2.94 -31,3.3 -51.63,4.89 -47.96,3.71 -95.79,-3.56 -138.92,-20.67 -38.65,-15.34 -76.1,-36.13 -110.44,-59.12 4.37,16.36 46.8,51.4 61.25,62.07 22.68,16.74 54.13,31.71 86.19,39.7 38.32,9.55 70.52,10.58 110.97,2.48 22.56,-4.52 79.17,-24.8 88.44,-37.45z"/>
    <path class="fil0" d="M310.87 1066.25c3.93,0 99.94,-17.01 123.09,-15.38 144.11,10.14 200.43,75.27 226.33,82.18 -30.8,-46 -92.44,-87.43 -150.01,-101.77 -63.25,-15.76 -132.64,-5.77 -189.08,27.31l-10.32 7.67z"/>
    <path class="fil0" d="M1122.74 423.94c-16.05,-21.9 -113.14,-50.38 -169.6,-192.66 -6.57,-16.56 -25.66,-77.38 -25.66,-97.67 -8.81,6.45 -5.25,35.49 -5.23,56.61 0.02,20.09 4.19,36.75 8.3,53.36 10.96,44.24 36.36,86.25 68.17,116.82 6.31,6.07 10.12,8.08 16.76,14.07 21.47,19.35 80,48.86 107.26,49.47z"/>
    <path class="fil0" d="M136.17 241.53c75.33,0 129.27,1.96 196.02,-48.05 26.8,-20.08 41.04,-35.23 59.89,-63.44 13.29,-19.88 34.62,-60.5 36.98,-88.91 -17.01,12.46 -61.03,124.41 -198.77,171.2l-71.65 20.84c-11.12,2.24 -17.32,1.33 -22.47,8.36z"/>
    <path class="fil0" d="M105.34 408.53c0,70.02 -1.82,85.79 -27.89,149.39 -10.06,24.54 -24.22,47.91 -37.82,70.08 -4.41,7.19 -12.15,17.93 -13.93,24.6 48.3,-32.34 107.91,-112.41 107.91,-192.69 0,-44.91 0.89,-54.7 -14.42,-98.62 -5.19,-14.88 -19.67,-48.5 -29.26,-55.53 6.8,29.2 15.42,67.86 15.42,102.77z"/>
    <path class="fil0" d="M737.36 1115.06c4.91,-3.29 51.57,-70.99 66.12,-85.46 5.81,-5.78 9.63,-9.61 15.42,-15.42 30.35,-30.51 73.46,-52.64 113.7,-68.72 16.42,-6.56 77.48,-25.66 97.66,-25.66l0 -5.14c-79.56,0 -131.42,0.8 -197.13,49.51 -46.71,34.62 -80.55,85.58 -95.76,150.88z"/>
    <path class="fil0" d="M43.68 732.25l69.76 51c115,92.65 117.41,229.63 130.64,239.32 0,-25.01 2.82,-34.5 0.41,-56.93 -9.22,-85.96 -36.99,-147.23 -111.39,-196.92 -17.98,-12.01 -62.42,-35.87 -89.42,-36.47z"/>
    <path class="fil0" d="M267.2 161.88c60.6,0 50.43,-77.08 5.14,-77.08 -54.88,0 -49.06,77.08 -5.14,77.08z"/>
    <path class="fil0" d="M1089.34 680.86c0,46.29 77.08,56.76 77.08,-5.14 0,-42.02 -77.08,-48.98 -77.08,5.14z"/>
    <path class="fil0" d="M87.35 883.83c0,61.52 77.08,51.21 77.08,5.14 0,-54.12 -77.08,-47.17 -77.08,-5.14z"/>
    <path class="fil0" d="M858.12 1027.71c0,64.48 77.08,49.39 77.08,5.14 0,-50.85 -77.08,-49.25 -77.08,-5.14z"/>
    <path class="fil0" d="M647.44 35.99c0,50.48 77.08,56.7 77.08,-2.57 0,-43.05 -77.08,-46.93 -77.08,2.57z"/>
    <path class="fil0" d="M-0 472.76c0,55.35 77.08,55.46 77.08,0 0,-45.66 -77.08,-45.66 -77.08,0z"/>
    <path class="fil0" d="M1001.99 267.22c0,46.61 77.08,58.41 77.08,-5.14 0,-8.11 -6.52,-18.05 -11.02,-22.39 -23.85,-23.02 -66.06,-4.99 -66.06,27.52z"/>
    <path class="fil0" d="M441.9 1117.63c0,50.41 77.08,54.2 77.08,-2.57 0,-44.68 -77.08,-46.64 -77.08,2.57z"/>
    <polygon class="fil1" points="855.55,89.95 858.12,89.95 855.97,86.95 "/>
    <polygon class="fil2" points="310.87,1066.25 308.3,1066.25 310.45,1069.24 "/>
    <polygon class="fil3" points="1122.74,423.94 1122.74,426.51 1125.74,424.37 "/>
    <polygon class="fil0" points="43.68,732.25 43.68,729.68 40.68,731.82 "/>
   </g>
  </g>
 </g>
</svg>
