<?xml version="1.0" encoding="UTF-8"?>
<!DOCTYPE svg PUBLIC "-//W3C//DTD SVG 1.1//EN" "http://www.w3.org/Graphics/SVG/1.1/DTD/svg11.dtd">
<!-- Creator: CorelDRAW 2021 (64-Bit) -->
<svg className="fill-white" xmlns="http://www.w3.org/2000/svg" xml:space="preserve" width="13.8221in" height="3.83782in" version="1.1" style="shape-rendering:geometricPrecision; text-rendering:geometricPrecision; image-rendering:optimizeQuality; fill-rule:evenodd; clip-rule:evenodd"
viewBox="0 0 12959.27 3598.25"
 xmlns:xlink="http://www.w3.org/1999/xlink"
 xmlns:xodm="http://www.corel.com/coreldraw/odm/2003">
 <defs>
  <style type="text/css">
   <![CDATA[
    .fil0 {fill:#fff;fill-rule:nonzero}
   ]]>
  </style>
 </defs>
 <g id="Layer_x0020_1">
  <metadata id="CorelCorpID_0Corel-Layer"/>
  <path class="fil0" d="M773.31 2653.5c-102.68,0 -200.35,-10.03 -291.99,-29.54 -92.15,-19.55 -177.81,-48.58 -257.94,-87.64 -79.64,-39.57 -154.27,-88.15 -223.38,-146.75l186.32 -228.9c81.14,70.12 170.78,123.21 268.46,158.27 97.67,35.06 203.85,52.58 318.55,52.58 154.27,0 273.96,-28.56 359.12,-85.64 85.14,-57.09 127.71,-138.23 127.71,-242.9l0 -1.5c0,-74.12 -19.04,-133.23 -57.59,-176.8 -39.06,-43.57 -88.65,-75.62 -149.76,-96.66 -61.11,-21.04 -140.25,-40.58 -236.9,-58.1 -3.01,-1.01 -6.51,-1.5 -9.52,-1.5 -3.52,0 -7.01,-0.51 -10.03,-1.5l-21.54 -4c-143.26,-24.53 -259.45,-52.08 -348.59,-83.13 -89.64,-31.06 -166.28,-87.14 -229.89,-168.78 -63.61,-81.64 -95.16,-197.84 -95.16,-348.59l0 -1.5c0,-131.72 29.54,-244.42 88.65,-338.08 59.09,-93.16 145.74,-164.78 258.95,-213.36 113.69,-49.09 249.93,-73.62 409.7,-73.62 76.12,0 151.26,8.5 224.88,25.04 74.12,16.53 146.75,41.57 218.88,74.12 71.62,32.56 142.25,74.12 211.86,124.2l-170.29 237.41c-81.14,-59.61 -161.77,-104.18 -242.9,-134.22 -80.63,-29.54 -161.28,-44.58 -242.42,-44.58 -145.74,0 -259.45,29.04 -340.09,87.14 -80.63,58.1 -120.7,140.73 -120.7,247.43l0 1.49c0,73.12 20.53,130.73 62.12,172.8 41.57,42.07 93.64,73.13 155.76,93.16 62.1,20.03 148.24,41.06 258.95,62.6 4,1.01 7.52,1.5 11.01,2 3.5,0.51 7.01,1.49 11.01,2.5 4.51,1.01 10.03,2 16.03,3.01 6,1.01 11.01,1.5 16.03,2.51 129.21,26.55 236.9,58.1 323.55,94.17 86.65,36.07 159.28,94.65 217.38,175.3 58.1,80.63 87.14,190.83 87.14,331.07l0 3.01c0,129.71 -30.55,240.91 -92.15,333.58 -62.1,92.65 -151.26,162.78 -267.96,211.36 -117.21,48.58 -257.94,72.63 -423.22,72.63l-0.05 -0.07zm11502.9 331.63c-17.6,0 -34.51,-1.72 -50.73,-5.15 -16.14,-3.43 -31.25,-8.58 -45.41,-15.36 -14.08,-6.78 -27.04,-15.02 -38.97,-24.72l31.93 -48.07c14.16,11.76 29.95,20.69 47.55,26.95 17.6,6.18 36.14,9.27 55.62,9.27 24.46,0 43.43,-4.37 56.91,-13.22 13.48,-8.75 20.26,-21.11 20.26,-36.82l0 -0.26c0,-12.27 -3.43,-21.63 -10.22,-28.15 -6.78,-6.53 -15.71,-11.33 -26.78,-14.51 -11.07,-3.09 -23.09,-5.75 -36.22,-7.9 -13.9,-2.14 -27.98,-4.89 -42.32,-8.15 -14.33,-3.26 -27.47,-8.41 -39.48,-15.36 -12.02,-6.95 -21.63,-16.91 -28.93,-29.87 -7.29,-13.05 -10.9,-30.3 -10.9,-51.93l0 -0.26c0,-34.93 11.5,-61.88 34.51,-81.03 23.09,-19.05 55.62,-28.67 97.77,-28.67 19.74,0 39.48,3.26 59.05,9.7 19.66,6.44 38.2,15.96 55.79,28.58l-29.1 49.53c-13.99,-10.21 -28.24,-17.94 -42.74,-23 -14.59,-5.15 -28.93,-7.73 -43,-7.73 -23,0 -40.86,4.29 -53.56,12.7 -12.79,8.5 -19.14,20.43 -19.14,35.88l0 0.26c0,12.71 3.69,22.4 11.16,29.01 7.47,6.61 17.25,11.5 29.36,14.68 12.02,3.26 24.97,6.18 38.71,8.84 13.74,2.66 27.47,5.92 41.12,9.79 13.65,3.86 26.09,9.44 37.42,16.74 11.33,7.29 20.34,17.25 27.04,29.95 6.7,12.62 10.04,29.1 10.04,49.36l0 0.52c0,34.42 -11.93,61.03 -35.79,80 -23.86,18.97 -57.59,28.41 -100.94,28.41zm-3725.18 -1608.31l291.99 0 0 650.1 159.77 0 0 277.48 -159.77 0 0 328.56 -291.99 0 0 -328.56 -920.07 0 0 -259.94 0.01 0 716.22 -1545.14 308.01 0 -698.7 1527.6 594.52 0 0 -650.1zm-3081.22 -878.99l299.5 0 0 2133.64 -299.5 0 0 -195.31c-30.28,56.37 -73.03,104.76 -128.22,145.16 -69.11,51.09 -153.77,76.63 -254.44,76.63l0.02 0.06c-111.69,0 -206.85,-24.53 -285.48,-72.63 -78.63,-48.58 -138.73,-119.21 -179.81,-212.37 -41.07,-92.65 -61.61,-204.34 -61.61,-334.57l0 -335.58c0,-131.23 20.04,-243.4 60.1,-336.05 40.07,-93.16 98.66,-163.77 175.3,-212.37 76.63,-48.08 168.78,-72.63 276.47,-72.63 90.15,0 172.8,23.54 247.43,70.63 58.9,37.16 109.07,85.87 150.25,146.61l0 -801.21zm0 1573.13l0 -409.68c0,-64.1 -11.52,-119.69 -35.06,-165.79 -23.54,-45.57 -57.59,-80.63 -102.17,-104.68 -44.58,-24.05 -98.17,-36.06 -161.77,-36.06 -99.16,0 -175.3,31.06 -229.89,92.65 -54.1,61.59 -81.14,148.24 -81.14,259.43l0 331.56c0,110.7 27.04,196.34 81.14,256.44 54.59,60.1 130.73,90.15 229.89,90.15 63.61,0 117.21,-12.51 161.77,-37.57 44.58,-25.04 78.63,-60.6 102.17,-107.69 23.54,-47.06 35.06,-103.19 35.06,-168.78zm-1618.26 -962.6l297.5 0 0 1523.09 -297.5 0 0 -201.1c-31.42,56.82 -75.33,105.81 -132.27,146.98 -70.61,50.58 -156.77,76.13 -259.44,76.13 -168.27,0 -298.51,-54.1 -389.67,-162.27 -91.66,-108.17 -137.23,-260.44 -137.23,-456.77l0 -926.07 299 0 0 926.07 0.04 0.02c0,106.68 27.54,188.83 81.64,246.93 54.1,58.1 130.73,87.64 229.89,87.64 97.67,0 173.3,-26.05 227.38,-78.15 53.59,-51.59 80.63,-125.72 80.63,-221.38l0.02 0.34 0 -961.46zm2210.76 0l305.53 0 383 1083.77 354.74 -1083.78 305.53 0 -0.01 0.01 -648.6 1879.71c-23.54,69.62 -54.1,124.22 -92.65,165.28 -38.08,40.56 -85.16,69.62 -140.75,87.14 -55.59,17.52 -124.22,26.55 -205.36,26.55l-60.1 0 0 -287.99 60.1 0c55.59,0 100.18,-11.01 132.73,-33.56 33.06,-22.54 61.59,-61.11 85.65,-115.69l72.84 -222.53 -552.65 -1498.9 0 0.01zm-4227.19 0l157.25 0 0 -443.25 299.51 0 0 443.25 229.91 0 0 269.96 -229.91 0 0 859.98c0,37.06 7.01,65.62 21.54,85.65 15.03,20.03 36.55,30.05 64.6,30.05l143.74 0 0 284.99 -172.8 0 0.02 -0.02c-123.21,0 -213.86,-34.07 -270.97,-102.17 -57.11,-68.12 -85.64,-168.27 -85.64,-301.5l0 -856.97 -157.25 0 0 -269.96zm7808.11 861.51c29.2,22.41 55.42,51.18 77.7,84.92 133.8,-26.57 276.28,-40.91 424.09,-40.91 398.69,0 758.55,104.23 1014.07,271.62 -242.88,-220.12 -636.83,-363.18 -1081.52,-363.18 -152.06,0 -298.17,16.72 -434.35,47.53l0 0.02zm1547.39 1568.29c-977.22,0 -1769.09,-792.25 -1769.09,-1769.08 0,-289.18 69.46,-562.38 192.4,-803.17 130.36,-255.24 320.43,-474.58 552.24,-639.27 271.23,-168.99 591.65,-266.94 934.7,-266.94 977.22,0 1769.09,792.25 1769.09,1769.09 0,595.14 -293.89,1122.04 -744.64,1442.43 -271.23,169 -591.66,266.94 -934.71,266.94zm-1024.87 -3211.52c-501.09,312.62 -834.38,868.35 -834.38,1502.53 0,977.22 792.25,1769.08 1769.08,1769.08 381.69,0 735.27,-121 1024.45,-326.64 501.09,-312.23 834.38,-868.36 834.38,-1502.53 0,-977.22 -792.25,-1769.08 -1769.08,-1769.08 -381.68,0 -735.27,121 -1024.45,326.65zm2571.3 1643.23c-29.2,22.41 -55.44,51.18 -77.7,84.92 -133.82,-26.57 -276.29,-40.91 -424.09,-40.91 -107.63,0 -212.44,7.62 -313.12,21.99l-27.92 -71.65c128.77,-27.22 266,-41.9 408.48,-41.9 152.05,0 298.18,16.72 434.35,47.53l0 0.02zm-739.55 259.57c35.45,-2.43 71.39,-3.67 107.75,-3.67 190.32,0 368.95,33.87 523.45,93.17 48.96,-46.97 102.73,-83.74 159.94,-108.31 -190.51,-86.26 -427.09,-137.37 -683.39,-137.37 -56.29,0 -111.63,2.47 -165.75,7.25l58 148.93 0 0zm-442.65 -105.38c-123.93,43.17 -236.38,97.71 -333.65,161.46 87.52,-79.33 194.69,-148.62 316.75,-204.85l16.9 43.42 0 -0.03zm-820.16 -10.39l-5.17 15.04c-104.06,-31.47 -217.01,-53.69 -335.89,-64.92l6.43 -17.44c101.39,11.77 198.93,30.42 291.25,55.15 14.59,3.91 29.06,7.97 43.38,12.18zm904.27 -1841.44l116.72 0 0 153.84 153.84 0 0 116.72 -153.84 0 0 153.84 -116.72 0 0 -153.84 -153.84 0 0 -116.72 153.84 0 0 -153.84zm-971.24 2036.5l-216.89 631.76 -380.51 0 255.86 -693.81c121.07,7.59 236.1,29.08 341.54,62.04l0 0zm602.49 191.5c95.22,-81.79 216.14,-149.27 354.48,-196.84l-57.88 -148.6c-163.48,52.99 -303.14,129.39 -406.79,221.75 -205.32,-183.02 -552.07,-303.27 -945.22,-303.27 -267.9,0 -514.26,55.84 -708.99,149.31 73.66,12.63 143.33,44.95 206.62,93.32 152.64,-57.42 328.39,-90.15 515.41,-90.15 334.04,0 632.09,104.35 826.84,267.47 17.09,14.31 33.37,29.1 48.83,44.29 24.24,5.69 50.02,8.76 76.77,8.76 14.74,0 29.18,-0.93 43.2,-2.72 14.81,-14.86 30.38,-29.33 46.72,-43.35l0.01 0.04zm-153.16 -1500.2l-359.32 1026.85c-136.26,-61.63 -200.95,-70.98 -319.5,-92.33l508.76 -1371.32 170.02 436.8 0.03 0zm809.13 1164.37l-192.07 -493.25 -12.24 -31.42 -28.63 -73.54 -7.4 -19 -35.49 -91.14 -7.7 -19.74 -128.2 -329.24 -252.42 -648.22 61.63 -23.99 287.25 737.67c6.04,15.48 23.66,23.23 39.14,17.19 15.5,-6.04 23.25,-23.64 17.21,-39.14l-287.25 -737.67 -11.01 -28.28 -10.94 -28.06 -25.68 10c-0.83,0.25 -1.69,0.52 -2.52,0.86 -0.83,0.33 -1.65,0.7 -2.43,1.09l-87.31 33.99 -7.4 -19 -6.28 -16.1 -5.38 -13.83 -6.28 -16.12 -1.07 -2.76c-2.58,-6.67 -5.63,-13.02 -9.07,-19.05 -2.68,-4.72 -5.61,-9.23 -8.76,-13.54 -7.48,-10.25 -16.22,-19.33 -25.89,-27.12 -5.78,-4.66 -11.94,-8.86 -18.34,-12.57 -1.78,-1.04 -3.59,-2.04 -5.44,-2.99 -10.38,-5.44 -21.38,-9.61 -32.79,-12.41 -27.82,-6.86 -57.88,-5.53 -86.48,5.6 -24.78,9.65 -45.43,25.54 -60.82,45.16 -30.47,38.87 -40.38,92.48 -21.25,141.6l9.48 24.32 291.31 748.08 410.19 1053.35 127.29 326.87 49.42 65.01 271.17 356.71 -42.27 -441.97 -7.62 -79.68 -127.6 -327.68 -0.07 0z"/>
 </g>
</svg>
