<?xml version="1.0" encoding="UTF-8"?>
<!DOCTYPE svg PUBLIC "-//W3C//DTD SVG 1.1//EN" "http://www.w3.org/Graphics/SVG/1.1/DTD/svg11.dtd">
<!-- Creator: CorelDRAW 2021 (64-Bit) -->
<svg xmlns="http://www.w3.org/2000/svg" xml:space="preserve" width="7.37947in" height="7.31915in" version="1.1" style="shape-rendering:geometricPrecision; text-rendering:geometricPrecision; image-rendering:optimizeQuality; fill-rule:evenodd; clip-rule:evenodd"
viewBox="0 0 6370.1 6318.03"
 xmlns:xlink="http://www.w3.org/1999/xlink"
 xmlns:xodm="http://www.corel.com/coreldraw/odm/2003">
 <defs>
  <style type="text/css">
   <![CDATA[
    .fil0 {fill:#9900CC;fill-rule:nonzero}
   ]]>
  </style>
 </defs>
 <g id="Layer_x0020_1">
  <metadata id="CorelCorpID_0Corel-Layer"/>
  <path class="fil0" d="M5170.73 5241.48c-30.9,0 -60.59,-3.01 -89.07,-9.04 -28.34,-6.03 -54.87,-15.07 -79.73,-26.97 -24.72,-11.92 -47.48,-26.38 -68.43,-43.41l56.07 -84.4c24.87,20.65 52.6,36.33 83.49,47.32 30.9,10.85 63.45,16.28 97.67,16.28 42.95,0 76.26,-7.68 99.92,-23.21 23.66,-15.37 35.57,-37.07 35.57,-64.65l0 -0.45c0,-21.55 -6.03,-37.98 -17.94,-49.43 -11.91,-11.46 -27.58,-19.9 -47.02,-25.47 -19.44,-5.42 -40.54,-10.1 -63.6,-13.87 -24.41,-3.77 -49.13,-8.59 -74.3,-14.32 -25.17,-5.72 -48.23,-14.77 -69.32,-26.97 -21.1,-12.21 -37.98,-29.69 -50.79,-52.45 -12.81,-22.91 -19.14,-53.21 -19.14,-91.19l0 -0.45c0,-61.34 20.2,-108.66 60.59,-142.27 40.54,-33.45 97.66,-50.34 171.66,-50.34 34.66,0 69.33,5.73 103.69,17.03 34.52,11.3 67.07,28.03 97.97,50.19l-51.09 86.97c-24.56,-17.93 -49.58,-31.5 -75.06,-40.39 -25.62,-9.04 -50.79,-13.57 -75.51,-13.57 -40.39,0 -71.74,7.54 -94.05,22.3 -22.45,14.93 -33.6,35.87 -33.6,63l0 0.46c0,22.31 6.48,39.33 19.59,50.94 13.11,11.61 30.29,20.19 51.55,25.77 21.1,5.73 43.85,10.85 67.97,15.52 24.12,4.67 48.23,10.4 72.2,17.18 23.96,6.79 45.82,16.58 65.71,29.39 19.9,12.81 35.72,30.29 47.47,52.6 11.76,22.16 17.64,51.09 17.64,86.66l0 0.91c0,60.43 -20.96,107.15 -62.85,140.46 -41.9,33.31 -101.13,49.89 -177.24,49.89zm-4623.14 -1782.65c51.27,39.35 97.3,89.87 136.43,149.12 234.93,-46.66 485.11,-71.83 744.65,-71.83 700.05,0 1331.9,183.02 1780.57,476.92 -426.47,-386.49 -1118.18,-637.7 -1899,-637.7 -266.99,0 -523.54,29.36 -762.66,83.45l0.01 0.03zm2717 2753.69c-1715.86,0 -3106.27,-1391.08 -3106.27,-3106.26 0,-507.76 121.97,-987.46 337.83,-1410.25 228.9,-448.17 562.63,-833.3 969.66,-1122.47 476.23,-296.73 1038.86,-468.71 1641.2,-468.71 1715.87,0 3106.28,1391.07 3106.28,3106.27 0,1044.98 -516.02,1970.14 -1307.48,2532.71 -476.23,296.73 -1038.86,468.71 -1641.21,468.71zm-1799.53 -5638.98c-879.84,548.92 -1465.06,1524.71 -1465.06,2638.23 0,1715.87 1391.09,3106.26 3106.26,3106.26 670.19,0 1291.03,-212.46 1798.79,-573.54 879.84,-548.23 1465.06,-1524.71 1465.06,-2638.23 0,-1715.87 -1391.09,-3106.26 -3106.26,-3106.26 -670.18,0 -1291.03,212.46 -1798.78,573.54zm4514.84 2885.29c-51.27,39.35 -97.34,89.87 -136.42,149.12 -234.97,-46.66 -485.13,-71.83 -744.65,-71.83 -188.98,0 -373.02,13.37 -549.8,38.6l-49.02 -125.82c226.1,-47.79 467.06,-73.56 717.24,-73.56 266.98,0 523.57,29.36 762.65,83.45l0 0.03zm-1298.54 455.77c62.25,-4.26 125.35,-6.44 189.2,-6.44 334.17,0 647.82,59.48 919.11,163.6 85.98,-82.47 180.39,-147.03 280.84,-190.18 -334.51,-151.47 -749.91,-241.2 -1199.94,-241.2 -98.84,0 -196.02,4.33 -291.04,12.72l101.84 261.5 0 0.01zm-777.22 -185.03c-217.6,75.79 -415.05,171.57 -585.85,283.5 153.68,-139.29 341.85,-260.95 556.18,-359.69l29.67 76.24 0 -0.04zm-1440.09 -18.25l-9.07 26.41c-182.71,-55.26 -381.04,-94.28 -589.77,-114l11.28 -30.63c178.03,20.67 349.29,53.41 511.4,96.83 25.62,6.86 51.02,13.98 76.16,21.39zm1587.77 -3233.31l204.95 0 0 270.12 270.12 0 0 204.94 -270.12 0 0 270.12 -204.95 0 0 -270.12 -270.12 0 0 -204.94 270.12 0 0 -270.12zm-1705.37 3575.81l-380.84 1109.29 -668.12 0 449.25 -1218.23c212.59,13.33 414.56,51.06 599.7,108.94l0.01 0zm1057.89 336.25c167.19,-143.62 379.51,-262.11 622.42,-345.63l-101.63 -260.93c-287.04,93.05 -532.27,227.19 -714.27,389.36 -360.51,-321.35 -969.35,-532.5 -1659.67,-532.5 -470.39,0 -902.98,98.05 -1244.89,262.17 129.33,22.17 251.67,78.92 362.79,163.86 268.01,-100.82 576.6,-158.29 904.98,-158.29 586.53,0 1109.86,183.22 1451.82,469.64 30.01,25.14 58.58,51.09 85.74,77.77 42.57,9.99 87.82,15.37 134.79,15.37 25.89,0 51.23,-1.64 75.86,-4.77 26,-26.09 53.34,-51.51 82.03,-76.12l0.03 0.06zm-268.92 -2634.15l-630.91 1803.01c-239.26,-108.22 -352.84,-124.63 -560.99,-162.12l893.32 -2407.85 298.54 766.96 0.04 0zm1420.71 2044.48l-337.24 -866.07 -21.49 -55.17 -50.27 -129.14 -13 -33.36 -62.32 -160.02 -13.51 -34.65 -225.1 -578.11 -443.22 -1138.18 108.22 -42.13 504.37 1295.25c10.6,27.17 41.54,40.79 68.72,30.18 27.22,-10.6 40.83,-41.51 30.22,-68.72l-504.37 -1295.24 -19.34 -49.66 -19.2 -49.27 -45.09 17.56c-1.46,0.45 -2.96,0.92 -4.43,1.5 -1.46,0.58 -2.9,1.23 -4.27,1.91l-153.3 59.69 -13 -33.36 -11.02 -28.28 -9.45 -24.29 -11.02 -28.3 -1.88 -4.84c-4.54,-11.7 -9.89,-22.85 -15.93,-33.45 -4.71,-8.3 -9.85,-16.2 -15.38,-23.78 -13.14,-18.01 -28.47,-33.94 -45.47,-47.61 -10.15,-8.18 -20.97,-15.55 -32.2,-22.07 -3.13,-1.84 -6.3,-3.58 -9.55,-5.25 -18.22,-9.55 -37.55,-16.88 -57.57,-21.79 -48.84,-12.04 -101.63,-9.71 -151.84,9.83 -43.52,16.95 -79.77,44.85 -106.79,79.29 -53.51,68.25 -70.91,162.38 -37.31,248.64l16.64 42.7 511.5 1313.51 720.24 1849.54 223.5 573.95 86.77 114.16 476.13 626.33 -74.22 -776.03 -13.38 -139.9 -224.04 -575.35 -0.12 0z"/>
 </g>
</svg>
